<mxfile host="app.diagrams.net" modified="2024-04-02T11:20:13.950Z" agent="Mozilla/5.0 (Windows NT 10.0; Win64; x64) AppleWebKit/537.36 (KHTML, like Gecko) Chrome/123.0.0.0 Safari/537.36" etag="I_PkqmnaxxOLLIPruYdl" version="24.0.4" type="github">
  <diagram id="C5RBs43oDa-KdzZeNtuy" name="Page-1">
    <mxGraphModel dx="1509" dy="1954" grid="1" gridSize="10" guides="1" tooltips="1" connect="1" arrows="1" fold="1" page="1" pageScale="1" pageWidth="827" pageHeight="1169" math="0" shadow="0">
      <root>
        <mxCell id="WIyWlLk6GJQsqaUBKTNV-0" />
        <mxCell id="WIyWlLk6GJQsqaUBKTNV-1" parent="WIyWlLk6GJQsqaUBKTNV-0" />
        <mxCell id="8qQeJ0eEbN7VkORL1g9j-6" style="edgeStyle=orthogonalEdgeStyle;rounded=0;orthogonalLoop=1;jettySize=auto;html=1;exitX=0.25;exitY=0;exitDx=0;exitDy=0;entryX=0.5;entryY=1;entryDx=0;entryDy=0;" edge="1" parent="WIyWlLk6GJQsqaUBKTNV-1" source="NOwEHH1t8_DrOCpnonOM-1" target="8qQeJ0eEbN7VkORL1g9j-5">
          <mxGeometry relative="1" as="geometry" />
        </mxCell>
        <mxCell id="8qQeJ0eEbN7VkORL1g9j-7" value="show" style="edgeLabel;html=1;align=center;verticalAlign=middle;resizable=0;points=[];" vertex="1" connectable="0" parent="8qQeJ0eEbN7VkORL1g9j-6">
          <mxGeometry x="-0.2606" y="-2" relative="1" as="geometry">
            <mxPoint as="offset" />
          </mxGeometry>
        </mxCell>
        <mxCell id="NOwEHH1t8_DrOCpnonOM-1" value="&lt;i&gt;&amp;lt;&amp;lt;Interface&amp;gt;&amp;gt;&lt;/i&gt;&lt;div&gt;&lt;b&gt;Controller&lt;/b&gt;&lt;/div&gt;" style="rounded=0;whiteSpace=wrap;html=1;" parent="WIyWlLk6GJQsqaUBKTNV-1" vertex="1">
          <mxGeometry x="284.38" y="100" width="480" height="60" as="geometry" />
        </mxCell>
        <mxCell id="NOwEHH1t8_DrOCpnonOM-4" style="edgeStyle=orthogonalEdgeStyle;rounded=0;orthogonalLoop=1;jettySize=auto;html=1;entryX=0.493;entryY=0.134;entryDx=0;entryDy=0;entryPerimeter=0;" parent="WIyWlLk6GJQsqaUBKTNV-1" source="NOwEHH1t8_DrOCpnonOM-2" target="NOwEHH1t8_DrOCpnonOM-7" edge="1">
          <mxGeometry relative="1" as="geometry">
            <mxPoint x="120" y="430" as="targetPoint" />
          </mxGeometry>
        </mxCell>
        <mxCell id="NOwEHH1t8_DrOCpnonOM-5" value="spawn" style="edgeLabel;html=1;align=center;verticalAlign=middle;resizable=0;points=[];" parent="NOwEHH1t8_DrOCpnonOM-4" vertex="1" connectable="0">
          <mxGeometry x="0.5833" y="-5" relative="1" as="geometry">
            <mxPoint as="offset" />
          </mxGeometry>
        </mxCell>
        <mxCell id="NOwEHH1t8_DrOCpnonOM-2" value="&lt;div style=&quot;text-align: left;&quot;&gt;+ startSimulation(): void&lt;/div&gt;&lt;div style=&quot;text-align: left;&quot;&gt;+ s&lt;span style=&quot;background-color: initial;&quot;&gt;topSimulation(): void&lt;/span&gt;&lt;/div&gt;&lt;div style=&quot;text-align: left;&quot;&gt;&lt;span style=&quot;background-color: initial;&quot;&gt;+ setupSimulation(SimulationType type, int numberOfSteps, int numberOfThread): void&lt;/span&gt;&lt;/div&gt;&lt;div style=&quot;text-align: left;&quot;&gt;&lt;span style=&quot;background-color: initial;&quot;&gt;+ showView(): void&lt;/span&gt;&lt;/div&gt;" style="rounded=0;whiteSpace=wrap;html=1;" parent="WIyWlLk6GJQsqaUBKTNV-1" vertex="1">
          <mxGeometry x="284.38" y="160" width="480" height="80" as="geometry" />
        </mxCell>
        <mxCell id="NOwEHH1t8_DrOCpnonOM-7" value="SimulationRunner" style="ellipse;shape=umlControl;whiteSpace=wrap;html=1;" parent="WIyWlLk6GJQsqaUBKTNV-1" vertex="1">
          <mxGeometry x="118.13" y="410" width="122.5" height="140" as="geometry" />
        </mxCell>
        <mxCell id="NOwEHH1t8_DrOCpnonOM-8" value="&lt;i&gt;&amp;lt;&amp;lt;Interface&amp;gt;&amp;gt;&lt;/i&gt;&lt;div&gt;&lt;b&gt;Simulation&lt;/b&gt;&lt;/div&gt;" style="rounded=0;whiteSpace=wrap;html=1;" parent="WIyWlLk6GJQsqaUBKTNV-1" vertex="1">
          <mxGeometry x="284.38" y="380" width="480" height="60" as="geometry" />
        </mxCell>
        <mxCell id="NOwEHH1t8_DrOCpnonOM-10" style="rounded=0;orthogonalLoop=1;jettySize=auto;html=1;exitX=0;exitY=0.5;exitDx=0;exitDy=0;entryX=0.999;entryY=0.512;entryDx=0;entryDy=0;entryPerimeter=0;endArrow=none;endFill=0;startArrow=classic;startFill=1;" parent="WIyWlLk6GJQsqaUBKTNV-1" source="NOwEHH1t8_DrOCpnonOM-9" target="NOwEHH1t8_DrOCpnonOM-7" edge="1">
          <mxGeometry relative="1" as="geometry">
            <mxPoint x="220" y="510" as="targetPoint" />
          </mxGeometry>
        </mxCell>
        <mxCell id="NOwEHH1t8_DrOCpnonOM-25" value="run" style="edgeLabel;html=1;align=center;verticalAlign=middle;resizable=0;points=[];" parent="NOwEHH1t8_DrOCpnonOM-10" vertex="1" connectable="0">
          <mxGeometry x="0.0506" y="2" relative="1" as="geometry">
            <mxPoint as="offset" />
          </mxGeometry>
        </mxCell>
        <mxCell id="NOwEHH1t8_DrOCpnonOM-15" style="edgeStyle=orthogonalEdgeStyle;rounded=0;orthogonalLoop=1;jettySize=auto;html=1;entryX=0.592;entryY=0.004;entryDx=0;entryDy=0;entryPerimeter=0;" parent="WIyWlLk6GJQsqaUBKTNV-1" source="NOwEHH1t8_DrOCpnonOM-9" target="NOwEHH1t8_DrOCpnonOM-12" edge="1">
          <mxGeometry relative="1" as="geometry" />
        </mxCell>
        <mxCell id="NOwEHH1t8_DrOCpnonOM-16" value="use" style="edgeLabel;html=1;align=center;verticalAlign=middle;resizable=0;points=[];" parent="NOwEHH1t8_DrOCpnonOM-15" vertex="1" connectable="0">
          <mxGeometry x="-0.1" relative="1" as="geometry">
            <mxPoint as="offset" />
          </mxGeometry>
        </mxCell>
        <mxCell id="NOwEHH1t8_DrOCpnonOM-37" style="rounded=0;orthogonalLoop=1;jettySize=auto;html=1;exitX=0.25;exitY=1;exitDx=0;exitDy=0;entryX=0.5;entryY=0;entryDx=0;entryDy=0;" parent="WIyWlLk6GJQsqaUBKTNV-1" source="NOwEHH1t8_DrOCpnonOM-9" target="NOwEHH1t8_DrOCpnonOM-35" edge="1">
          <mxGeometry relative="1" as="geometry">
            <mxPoint x="90.00000000000011" y="520" as="sourcePoint" />
          </mxGeometry>
        </mxCell>
        <mxCell id="NOwEHH1t8_DrOCpnonOM-38" value="has" style="edgeLabel;html=1;align=center;verticalAlign=middle;resizable=0;points=[];" parent="NOwEHH1t8_DrOCpnonOM-37" vertex="1" connectable="0">
          <mxGeometry x="-0.0264" y="1" relative="1" as="geometry">
            <mxPoint y="-1" as="offset" />
          </mxGeometry>
        </mxCell>
        <mxCell id="8qQeJ0eEbN7VkORL1g9j-26" style="edgeStyle=orthogonalEdgeStyle;rounded=0;orthogonalLoop=1;jettySize=auto;html=1;exitX=1;exitY=0.5;exitDx=0;exitDy=0;entryX=1;entryY=0.5;entryDx=0;entryDy=0;" edge="1" parent="WIyWlLk6GJQsqaUBKTNV-1" source="8qQeJ0eEbN7VkORL1g9j-29" target="8qQeJ0eEbN7VkORL1g9j-25">
          <mxGeometry relative="1" as="geometry" />
        </mxCell>
        <mxCell id="8qQeJ0eEbN7VkORL1g9j-27" value="run when breaks" style="edgeLabel;html=1;align=center;verticalAlign=middle;resizable=0;points=[];" vertex="1" connectable="0" parent="8qQeJ0eEbN7VkORL1g9j-26">
          <mxGeometry x="-0.0095" y="3" relative="1" as="geometry">
            <mxPoint x="-7" y="-66" as="offset" />
          </mxGeometry>
        </mxCell>
        <mxCell id="8qQeJ0eEbN7VkORL1g9j-30" style="edgeStyle=orthogonalEdgeStyle;rounded=0;orthogonalLoop=1;jettySize=auto;html=1;exitX=0.75;exitY=1;exitDx=0;exitDy=0;" edge="1" parent="WIyWlLk6GJQsqaUBKTNV-1" source="NOwEHH1t8_DrOCpnonOM-9" target="8qQeJ0eEbN7VkORL1g9j-29">
          <mxGeometry relative="1" as="geometry" />
        </mxCell>
        <mxCell id="8qQeJ0eEbN7VkORL1g9j-31" value="delegate" style="edgeLabel;html=1;align=center;verticalAlign=middle;resizable=0;points=[];" vertex="1" connectable="0" parent="8qQeJ0eEbN7VkORL1g9j-30">
          <mxGeometry x="-0.3077" relative="1" as="geometry">
            <mxPoint as="offset" />
          </mxGeometry>
        </mxCell>
        <mxCell id="NOwEHH1t8_DrOCpnonOM-9" value="&lt;div style=&quot;&quot;&gt;&amp;nbsp;+ setup(int numSteps, int numOfThread): void&lt;br&gt;&lt;/div&gt;&lt;div style=&quot;&quot;&gt;&lt;div style=&quot;&quot;&gt;&amp;nbsp;+ addSimulationListener(SimulationListener listener): void&lt;/div&gt;&lt;div style=&quot;&quot;&gt;&lt;span style=&quot;background-color: initial;&quot;&gt;&amp;nbsp;+ doStep(): void&lt;/span&gt;&lt;br&gt;&lt;/div&gt;&lt;/div&gt;" style="rounded=0;whiteSpace=wrap;html=1;align=left;" parent="WIyWlLk6GJQsqaUBKTNV-1" vertex="1">
          <mxGeometry x="284.38" y="440" width="480" height="80" as="geometry" />
        </mxCell>
        <mxCell id="NOwEHH1t8_DrOCpnonOM-12" value="&lt;i&gt;&amp;lt;&amp;lt;Static&amp;gt;&amp;gt;&lt;/i&gt;&lt;div&gt;&lt;b&gt;TaskSplitter&lt;/b&gt;&lt;/div&gt;" style="rounded=0;whiteSpace=wrap;html=1;" parent="WIyWlLk6GJQsqaUBKTNV-1" vertex="1">
          <mxGeometry x="174.38" y="630" width="590" height="60" as="geometry" />
        </mxCell>
        <mxCell id="NOwEHH1t8_DrOCpnonOM-14" value="&lt;div style=&quot;&quot;&gt;&amp;nbsp;+ splitTask(&lt;span style=&quot;background-color: initial;&quot;&gt;int numOfThread, List&amp;lt;AbstractCarAgent&amp;gt; listOfAgent, int numOfStep,&amp;nbsp;&lt;/span&gt;&lt;span style=&quot;background-color: initial;&quot;&gt;CyclicBarrier barrier&lt;/span&gt;): void&lt;/div&gt;" style="rounded=0;whiteSpace=wrap;html=1;align=left;" parent="WIyWlLk6GJQsqaUBKTNV-1" vertex="1">
          <mxGeometry x="174.38" y="690" width="590" height="40" as="geometry" />
        </mxCell>
        <mxCell id="NOwEHH1t8_DrOCpnonOM-17" style="rounded=0;orthogonalLoop=1;jettySize=auto;html=1;exitX=0.305;exitY=1.084;exitDx=0;exitDy=0;entryX=0.5;entryY=0;entryDx=0;entryDy=0;exitPerimeter=0;" parent="WIyWlLk6GJQsqaUBKTNV-1" source="NOwEHH1t8_DrOCpnonOM-14" target="NOwEHH1t8_DrOCpnonOM-21" edge="1">
          <mxGeometry relative="1" as="geometry">
            <mxPoint x="604.38" y="770" as="sourcePoint" />
            <mxPoint x="503.2989189189192" y="750" as="targetPoint" />
          </mxGeometry>
        </mxCell>
        <mxCell id="NOwEHH1t8_DrOCpnonOM-18" value="Spawn" style="edgeLabel;html=1;align=center;verticalAlign=middle;resizable=0;points=[];" parent="NOwEHH1t8_DrOCpnonOM-17" vertex="1" connectable="0">
          <mxGeometry x="0.5833" y="-5" relative="1" as="geometry">
            <mxPoint x="80" y="70" as="offset" />
          </mxGeometry>
        </mxCell>
        <mxCell id="8qQeJ0eEbN7VkORL1g9j-18" value="spawn" style="edgeLabel;html=1;align=center;verticalAlign=middle;resizable=0;points=[];" vertex="1" connectable="0" parent="NOwEHH1t8_DrOCpnonOM-17">
          <mxGeometry x="-0.0857" y="-1" relative="1" as="geometry">
            <mxPoint as="offset" />
          </mxGeometry>
        </mxCell>
        <mxCell id="8qQeJ0eEbN7VkORL1g9j-22" style="edgeStyle=orthogonalEdgeStyle;rounded=0;orthogonalLoop=1;jettySize=auto;html=1;entryX=0;entryY=0.5;entryDx=0;entryDy=0;exitX=1.008;exitY=0.86;exitDx=0;exitDy=0;exitPerimeter=0;" edge="1" parent="WIyWlLk6GJQsqaUBKTNV-1" source="NOwEHH1t8_DrOCpnonOM-21" target="8qQeJ0eEbN7VkORL1g9j-20">
          <mxGeometry relative="1" as="geometry">
            <mxPoint x="510.62" y="910" as="sourcePoint" />
          </mxGeometry>
        </mxCell>
        <mxCell id="8qQeJ0eEbN7VkORL1g9j-23" value="run" style="edgeLabel;html=1;align=center;verticalAlign=middle;resizable=0;points=[];" vertex="1" connectable="0" parent="8qQeJ0eEbN7VkORL1g9j-22">
          <mxGeometry x="0.0349" y="2" relative="1" as="geometry">
            <mxPoint as="offset" />
          </mxGeometry>
        </mxCell>
        <mxCell id="NOwEHH1t8_DrOCpnonOM-21" value="" style="whiteSpace=wrap;html=1;aspect=fixed;" parent="WIyWlLk6GJQsqaUBKTNV-1" vertex="1">
          <mxGeometry x="229" y="790" width="250" height="250" as="geometry" />
        </mxCell>
        <mxCell id="NOwEHH1t8_DrOCpnonOM-22" value="SimulationWorker" style="ellipse;shape=umlControl;whiteSpace=wrap;html=1;" parent="WIyWlLk6GJQsqaUBKTNV-1" vertex="1">
          <mxGeometry x="243.62" y="800" width="96.25" height="110" as="geometry" />
        </mxCell>
        <mxCell id="NOwEHH1t8_DrOCpnonOM-23" value="SimulationWorker" style="ellipse;shape=umlControl;whiteSpace=wrap;html=1;" parent="WIyWlLk6GJQsqaUBKTNV-1" vertex="1">
          <mxGeometry x="375.87" y="800" width="96.25" height="110" as="geometry" />
        </mxCell>
        <mxCell id="NOwEHH1t8_DrOCpnonOM-24" value="SimulationWorker" style="ellipse;shape=umlControl;whiteSpace=wrap;html=1;" parent="WIyWlLk6GJQsqaUBKTNV-1" vertex="1">
          <mxGeometry x="305.88" y="910" width="96.25" height="110" as="geometry" />
        </mxCell>
        <mxCell id="NOwEHH1t8_DrOCpnonOM-35" value="&lt;div&gt;&lt;b&gt;SimulationState&lt;/b&gt;&lt;/div&gt;" style="rounded=0;whiteSpace=wrap;html=1;" parent="WIyWlLk6GJQsqaUBKTNV-1" vertex="1">
          <mxGeometry x="324.32" y="550" width="160" height="40" as="geometry" />
        </mxCell>
        <mxCell id="8qQeJ0eEbN7VkORL1g9j-0" value="&lt;i&gt;&amp;lt;&amp;lt;Interface&amp;gt;&amp;gt;&lt;/i&gt;&lt;div&gt;&lt;b&gt;View&lt;/b&gt;&lt;/div&gt;" style="rounded=0;whiteSpace=wrap;html=1;" vertex="1" parent="WIyWlLk6GJQsqaUBKTNV-1">
          <mxGeometry x="284.38" y="-150" width="480" height="60" as="geometry" />
        </mxCell>
        <mxCell id="8qQeJ0eEbN7VkORL1g9j-2" style="edgeStyle=orthogonalEdgeStyle;rounded=0;orthogonalLoop=1;jettySize=auto;html=1;exitX=1;exitY=0.5;exitDx=0;exitDy=0;entryX=1;entryY=0.5;entryDx=0;entryDy=0;" edge="1" parent="WIyWlLk6GJQsqaUBKTNV-1" source="8qQeJ0eEbN7VkORL1g9j-1" target="NOwEHH1t8_DrOCpnonOM-9">
          <mxGeometry relative="1" as="geometry" />
        </mxCell>
        <mxCell id="8qQeJ0eEbN7VkORL1g9j-4" value="listen" style="edgeLabel;html=1;align=center;verticalAlign=middle;resizable=0;points=[];" vertex="1" connectable="0" parent="8qQeJ0eEbN7VkORL1g9j-2">
          <mxGeometry x="0.3054" y="2" relative="1" as="geometry">
            <mxPoint as="offset" />
          </mxGeometry>
        </mxCell>
        <mxCell id="8qQeJ0eEbN7VkORL1g9j-1" value="&lt;div style=&quot;&quot;&gt;&amp;nbsp;+ display(): void&lt;/div&gt;" style="rounded=0;whiteSpace=wrap;html=1;align=left;" vertex="1" parent="WIyWlLk6GJQsqaUBKTNV-1">
          <mxGeometry x="284.38" y="-90" width="480" height="30" as="geometry" />
        </mxCell>
        <mxCell id="8qQeJ0eEbN7VkORL1g9j-10" style="edgeStyle=orthogonalEdgeStyle;rounded=0;orthogonalLoop=1;jettySize=auto;html=1;exitX=0.5;exitY=0;exitDx=0;exitDy=0;entryX=0.25;entryY=1;entryDx=0;entryDy=0;endArrow=block;endFill=0;" edge="1" parent="WIyWlLk6GJQsqaUBKTNV-1" source="8qQeJ0eEbN7VkORL1g9j-5" target="8qQeJ0eEbN7VkORL1g9j-1">
          <mxGeometry relative="1" as="geometry">
            <mxPoint x="404.37999999999977" y="-40" as="targetPoint" />
          </mxGeometry>
        </mxCell>
        <mxCell id="8qQeJ0eEbN7VkORL1g9j-5" value="&lt;b&gt;RoadSimView&lt;/b&gt;" style="rounded=0;whiteSpace=wrap;html=1;" vertex="1" parent="WIyWlLk6GJQsqaUBKTNV-1">
          <mxGeometry x="318.38" y="-16" width="171.87" height="60" as="geometry" />
        </mxCell>
        <mxCell id="8qQeJ0eEbN7VkORL1g9j-9" value="&lt;b&gt;StatisticalView&lt;/b&gt;" style="rounded=0;whiteSpace=wrap;html=1;" vertex="1" parent="WIyWlLk6GJQsqaUBKTNV-1">
          <mxGeometry x="529.38" y="-16" width="171.87" height="60" as="geometry" />
        </mxCell>
        <mxCell id="8qQeJ0eEbN7VkORL1g9j-11" style="edgeStyle=orthogonalEdgeStyle;rounded=0;orthogonalLoop=1;jettySize=auto;html=1;exitX=0.5;exitY=0;exitDx=0;exitDy=0;entryX=0.691;entryY=1.033;entryDx=0;entryDy=0;endArrow=block;endFill=0;entryPerimeter=0;" edge="1" parent="WIyWlLk6GJQsqaUBKTNV-1" source="8qQeJ0eEbN7VkORL1g9j-9" target="8qQeJ0eEbN7VkORL1g9j-1">
          <mxGeometry relative="1" as="geometry">
            <mxPoint x="594.4599999999999" y="-40" as="targetPoint" />
          </mxGeometry>
        </mxCell>
        <mxCell id="8qQeJ0eEbN7VkORL1g9j-13" style="edgeStyle=orthogonalEdgeStyle;rounded=0;orthogonalLoop=1;jettySize=auto;html=1;endArrow=none;endFill=0;entryX=1;entryY=0.5;entryDx=0;entryDy=0;exitX=1;exitY=0.5;exitDx=0;exitDy=0;" edge="1" parent="WIyWlLk6GJQsqaUBKTNV-1" source="8qQeJ0eEbN7VkORL1g9j-14" target="NOwEHH1t8_DrOCpnonOM-9">
          <mxGeometry relative="1" as="geometry">
            <mxPoint x="790" y="340" as="targetPoint" />
            <Array as="points">
              <mxPoint x="710" y="310" />
              <mxPoint x="784" y="310" />
              <mxPoint x="784" y="480" />
            </Array>
          </mxGeometry>
        </mxCell>
        <mxCell id="8qQeJ0eEbN7VkORL1g9j-12" value="&lt;b&gt;RoadSimStatistics&lt;/b&gt;" style="rounded=0;whiteSpace=wrap;html=1;" vertex="1" parent="WIyWlLk6GJQsqaUBKTNV-1">
          <mxGeometry x="538" y="273" width="171.87" height="40" as="geometry" />
        </mxCell>
        <mxCell id="8qQeJ0eEbN7VkORL1g9j-14" value="-log(String msg): void" style="rounded=0;whiteSpace=wrap;html=1;" vertex="1" parent="WIyWlLk6GJQsqaUBKTNV-1">
          <mxGeometry x="538" y="313" width="171.87" height="40" as="geometry" />
        </mxCell>
        <mxCell id="8qQeJ0eEbN7VkORL1g9j-15" value="EventDispatchThread" style="ellipse;shape=umlControl;whiteSpace=wrap;html=1;" vertex="1" parent="WIyWlLk6GJQsqaUBKTNV-1">
          <mxGeometry x="90" y="-156" width="122.5" height="140" as="geometry" />
        </mxCell>
        <mxCell id="8qQeJ0eEbN7VkORL1g9j-16" style="edgeStyle=orthogonalEdgeStyle;rounded=0;orthogonalLoop=1;jettySize=auto;html=1;exitX=0;exitY=0.5;exitDx=0;exitDy=0;entryX=0.996;entryY=0.571;entryDx=0;entryDy=0;entryPerimeter=0;" edge="1" parent="WIyWlLk6GJQsqaUBKTNV-1" source="8qQeJ0eEbN7VkORL1g9j-1" target="8qQeJ0eEbN7VkORL1g9j-15">
          <mxGeometry relative="1" as="geometry" />
        </mxCell>
        <mxCell id="8qQeJ0eEbN7VkORL1g9j-17" value="delegate" style="edgeLabel;html=1;align=center;verticalAlign=middle;resizable=0;points=[];" vertex="1" connectable="0" parent="8qQeJ0eEbN7VkORL1g9j-16">
          <mxGeometry x="0.049" relative="1" as="geometry">
            <mxPoint x="1" as="offset" />
          </mxGeometry>
        </mxCell>
        <mxCell id="8qQeJ0eEbN7VkORL1g9j-24" style="edgeStyle=orthogonalEdgeStyle;rounded=0;orthogonalLoop=1;jettySize=auto;html=1;exitX=0.5;exitY=0;exitDx=0;exitDy=0;entryX=0.5;entryY=1;entryDx=0;entryDy=0;endArrow=block;endFill=0;" edge="1" parent="WIyWlLk6GJQsqaUBKTNV-1" source="8qQeJ0eEbN7VkORL1g9j-20" target="8qQeJ0eEbN7VkORL1g9j-21">
          <mxGeometry relative="1" as="geometry" />
        </mxCell>
        <mxCell id="8qQeJ0eEbN7VkORL1g9j-20" value="&lt;i&gt;&amp;lt;&amp;lt;Interface&amp;gt;&amp;gt;&lt;/i&gt;&lt;div&gt;&lt;b&gt;ParallelTask&lt;/b&gt;&lt;/div&gt;" style="rounded=0;whiteSpace=wrap;html=1;" vertex="1" parent="WIyWlLk6GJQsqaUBKTNV-1">
          <mxGeometry x="554.38" y="975" width="210" height="60" as="geometry" />
        </mxCell>
        <mxCell id="8qQeJ0eEbN7VkORL1g9j-21" value="&lt;i&gt;&amp;lt;&amp;lt;Interface&amp;gt;&amp;gt;&lt;/i&gt;&lt;div&gt;&lt;b&gt;Runnable&lt;/b&gt;&lt;/div&gt;" style="rounded=0;whiteSpace=wrap;html=1;" vertex="1" parent="WIyWlLk6GJQsqaUBKTNV-1">
          <mxGeometry x="554.38" y="885" width="210" height="60" as="geometry" />
        </mxCell>
        <mxCell id="8qQeJ0eEbN7VkORL1g9j-28" style="edgeStyle=orthogonalEdgeStyle;rounded=0;orthogonalLoop=1;jettySize=auto;html=1;exitX=0.5;exitY=1;exitDx=0;exitDy=0;entryX=0.5;entryY=0;entryDx=0;entryDy=0;endArrow=block;endFill=0;" edge="1" parent="WIyWlLk6GJQsqaUBKTNV-1" source="8qQeJ0eEbN7VkORL1g9j-25" target="8qQeJ0eEbN7VkORL1g9j-21">
          <mxGeometry relative="1" as="geometry" />
        </mxCell>
        <mxCell id="8qQeJ0eEbN7VkORL1g9j-25" value="&lt;i&gt;&amp;lt;&amp;lt;Interface&amp;gt;&amp;gt;&lt;/i&gt;&lt;div&gt;&lt;b&gt;SerialTask&lt;/b&gt;&lt;/div&gt;" style="rounded=0;whiteSpace=wrap;html=1;" vertex="1" parent="WIyWlLk6GJQsqaUBKTNV-1">
          <mxGeometry x="554.38" y="795" width="210" height="60" as="geometry" />
        </mxCell>
        <mxCell id="8qQeJ0eEbN7VkORL1g9j-29" value="&lt;div&gt;&lt;b&gt;CyclicBarrier&lt;/b&gt;&lt;/div&gt;" style="rounded=0;whiteSpace=wrap;html=1;" vertex="1" parent="WIyWlLk6GJQsqaUBKTNV-1">
          <mxGeometry x="565" y="550" width="160" height="40" as="geometry" />
        </mxCell>
      </root>
    </mxGraphModel>
  </diagram>
</mxfile>
